PathFileType	4	(X/Y/Z)	./resultDataOpenSim/trcMotMarkerGrf/sub06/qtm-04-04.trc
DataRate	CameraRate	NumFrames	NumMarkers	Units	OrigDataRate	OrigDataStartFrame	OrigNumFrames
250.000000	250.000000	7	24	m	250.000000	269	536
Frame#	Time	L.Toe.Tip			R.Toe.Tip			L.Ankle.Lat			R.Ankle.Lat			L.Ankle.Med			R.Ankle.Med			L.Heel			R.Heel			L.Knee.Lat			R.Knee.Lat			L.Knee.Med			R.Knee.Med			L.Thigh.Upper			R.Thigh.Upper			L.ASIS			R.ASIS			V.Sacral			L.Acromium			R.Acromium			C7			L.Elbow			R.Elbow			L.Wrist.Lat			R.Wrist.Lat
		X1	Y1	Z1	X2	Y2	Z2	X3	Y3	Z3	X4	Y4	Z4	X5	Y5	Z5	X6	Y6	Z6	X7	Y7	Z7	X8	Y8	Z8	X9	Y9	Z9	X10	Y10	Z10	X11	Y11	Z11	X12	Y12	Z12	X13	Y13	Z13	X14	Y14	Z14	X15	Y15	Z15	X16	Y16	Z16	X17	Y17	Z17	X18	Y18	Z18	X19	Y19	Z19	X20	Y20	Z20	X21	Y21	Z21	X22	Y22	Z22	X23	Y23	Z23	X24	Y24	Z24

269	1.072	0.092799852	-0.041029866	-0.033593067	0.8397697	0.11075339	0.14743414	-0.0089410875	0.031394636	-0.056782564	0.70603664	0.079018932	0.15857428	0.00041816279	0.046229257	0.029374016	0.72291067	0.11300001	0.075566869	-0.085231326	0.031900128	-0.0090153451	0.67211095	0.038817258	0.092179721	0.17419867	0.35760922	-0.074456104	0.59701125	0.4542502	0.17396357	0.1694614	0.35692715	0.046392256	0.58419882	0.42986648	0.048320391	0.28286623	0.72231328	-0.13452224	0.33456006	0.73889961	0.21859329	0.37500565	0.76540179	-0.1074695	0.4249694	0.78313294	0.13436282	0.21932014	0.84688241	0.053785555	0.34947102	1.2541265	-0.15157149	0.33784226	1.2370303	0.21299167	0.27197059	1.2880477	0.027664835	0.37340442	0.93155115	-0.22472405	0.18909653	0.96232052	0.26614723	0.60054246	0.83613889	-0.17233836	0.23184559	0.73963461	0.34375783
270	1.076	0.092895791	-0.041006356	-0.033588129	0.8448795	0.10896128	0.14576067	-0.0074654015	0.032750676	-0.057061416	0.71114627	0.077096616	0.15745722	0.0019363926	0.047530956	0.029130595	0.72809283	0.11105413	0.074495485	-0.083798143	0.034382016	-0.0092628227	0.6772592	0.036846791	0.091112019	0.17953707	0.35702458	-0.07445554	0.60336416	0.4528987	0.1729791	0.17507229	0.35636892	0.046172151	0.59011754	0.42911546	0.047748841	0.28871289	0.72120083	-0.13413043	0.34419959	0.73779708	0.2181971	0.3812035	0.76456114	-0.1076402	0.43240659	0.78228027	0.13411944	0.22627933	0.84599556	0.054629553	0.35591476	1.2534094	-0.15080571	0.34462829	1.2359855	0.21374214	0.27867117	1.287114	0.028547823	0.38143575	0.9306452	-0.22428665	0.19616918	0.9612334	0.26703329	0.60823302	0.83610851	-0.17133497	0.23901733	0.73849887	0.34473656
271	1.08	0.093004085	-0.040982637	-0.033592288	0.84950187	0.10674873	0.14404028	-0.0058680461	0.03417597	-0.057402034	0.71572974	0.074972696	0.15626507	0.0034942068	0.04885227	0.028810193	0.73279085	0.10888492	0.07333451	-0.082217107	0.036983519	-0.0095066683	0.68183721	0.03470173	0.089972053	0.18502602	0.35644561	-0.074466374	0.60980367	0.45147398	0.17211329	0.18061419	0.35593948	0.045972508	0.59571576	0.42838824	0.047387694	0.29469524	0.72011658	-0.1337166	0.35363663	0.73689926	0.21787158	0.38750067	0.76374375	-0.10780328	0.43991538	0.78149879	0.13388523	0.23331846	0.84515723	0.055451668	0.36241693	1.2527679	-0.14999523	0.3514735	1.2350176	0.21451473	0.28541351	1.2862322	0.029470311	0.38927587	0.92981199	-0.22382803	0.20343019	0.96015626	0.26780646	0.61581266	0.83604849	-0.1703602	0.24638009	0.73742991	0.34571456
272	1.084	0.093126679	-0.040956485	-0.033605977	0.85372099	0.10403697	0.14234855	-0.0041448795	0.03566528	-0.057787868	0.71978789	0.072678658	0.15502213	0.0050945783	0.050178977	0.028391094	0.73695734	0.10646966	0.07206698	-0.080491015	0.039702382	-0.0097763305	0.68577504	0.032477955	0.088835551	0.19066632	0.35587159	-0.074498093	0.61634249	0.44999155	0.17140746	0.18628886	0.35546814	0.04581599	0.60111479	0.42765321	0.047115493	0.30082393	0.71911305	-0.13322864	0.3628947	0.73617384	0.21759467	0.39390119	0.76295846	-0.10795157	0.44749735	0.78079626	0.13366745	0.24043703	0.84436781	0.056242829	0.36898287	1.2522042	-0.14914037	0.35838711	1.2341276	0.21531318	0.29220636	1.2854022	0.030418271	0.396657	0.92915215	-0.22321794	0.21093072	0.95906213	0.26841387	0.62327933	0.83596113	-0.16942158	0.25393066	0.73643557	0.3466868
273	1.088	0.093262095	-0.040926811	-0.033630319	0.85761778	0.10074487	0.14075964	-0.0022895606	0.037213093	-0.058207154	0.7234042	0.070198915	0.15373493	0.0067937638	0.051534631	0.027884329	0.7405504	0.10376971	0.070655664	-0.078610761	0.042539314	-0.01008474	0.68894988	0.030395773	0.087807516	0.19645614	0.3553025	-0.074580782	0.62283445	0.44844135	0.1707748	0.19224777	0.35484537	0.045691365	0.60648864	0.42689005	0.046764541	0.30710997	0.71819267	-0.13268191	0.3721644	0.73552686	0.21730413	0.40041228	0.76221485	-0.10806773	0.45515644	0.7801776	0.1334756	0.24761883	0.84362501	0.056979035	0.37561718	1.2517168	-0.14823893	0.36537235	1.2333161	0.21613726	0.29905585	1.2846191	0.031373894	0.40360373	0.92870121	-0.22244087	0.21860963	0.95799236	0.26890806	0.63063305	0.83584877	-0.16852502	0.26165908	0.73551787	0.34765071
274	1.092	0.093412287	-0.040893535	-0.0336661	0.86124621	0.096824529	0.13935161	-0.00030844432	0.038828011	-0.058663137	0.72677345	0.067495558	0.15239463	0.0086763318	0.052973846	0.027333054	0.74362256	0.10076623	0.069054204	-0.076564308	0.045493671	-0.010433033	0.69132252	0.028739808	0.086909135	0.20239289	0.35473813	-0.07475625	0.62905265	0.44678167	0.17008002	0.19849111	0.35409232	0.045565174	0.61190005	0.42605686	0.046297598	0.3135567	0.71732624	-0.13211927	0.38160745	0.73488831	0.21696115	0.40704132	0.76151589	-0.10813702	0.46288464	0.77964479	0.13331684	0.25483011	0.8429279	0.057627076	0.38232242	1.2513011	-0.14728974	0.3724295	1.2325787	0.21698505	0.30595636	1.2838776	0.032327038	0.41048137	0.92838439	-0.22163435	0.22631906	0.95702955	0.26942072	0.63787846	0.83571529	-0.16766774	0.26955957	0.73467146	0.34861095
275	1.096	0.093594467	-0.040850046	-0.033710541	0.86458834	0.092335653	0.13820298	0.0017536315	0.040552549	-0.05917108	0.73006908	0.06469758	0.15103642	0.010775831	0.054524767	0.026762311	0.74644351	0.097537364	0.067255554	-0.074341301	0.048563798	-0.010820386	0.69310056	0.027752721	0.085973906	0.20847573	0.35417629	-0.075042626	0.63485026	0.44495143	0.16927543	0.20494911	0.35328212	0.045411287	0.61729233	0.42508886	0.045814941	0.32015859	0.71648841	-0.1315721	0.39128317	0.73424119	0.21657231	0.4137925	0.76085991	-0.10815563	0.47064848	0.77919355	0.13319371	0.2620352	0.8422859	0.058166621	0.38910148	1.2509529	-0.14629454	0.37956	1.2319076	0.21785629	0.31289192	1.2831793	0.033293034	0.41761085	0.92807002	-0.22094749	0.23398986	0.95620015	0.27001479	0.64502175	0.83556317	-0.16684454	0.27763444	0.73388899	0.34957573
